<svg viewBox="0 0 1024 1024" version="1.1" xmlns="http://www.w3.org/2000/svg" p-id="2288" width="1em" height="1em" fill="currentColor" data-spm-anchor-id="a313x.7781069.0.i3"><path d="M941.34272 396.9024l-73.3184 379.24864A204.8 204.8 0 0 1 666.95168 942.08H357.0688a204.8 204.8 0 0 1-201.09312-165.92896L82.65728 396.9024a40.96 40.96 0 0 1 17.1008-41.5744l389.12-266.24a40.96 40.96 0 0 1 46.24384 0l389.12 266.24a40.96 40.96 0 0 1 17.1008 41.5744zM655.36 487.2192L512 389.12l-143.36 98.0992 26.8288 138.8544A61.44 61.44 0 0 0 455.82336 675.84h112.39424a61.44 61.44 0 0 0 60.3136-49.7664L655.36 487.2192z" p-id="2289" data-spm-anchor-id="a313x.7781069.0.i2" ></path></svg>