<svg t="1689837028511"  viewBox="0 0 1024 1024" version="1.1" xmlns="http://www.w3.org/2000/svg" p-id="3345" width="1em" height="1em"><path d="M810.65 473.532h42.654v358.458h-42.654z" fill="currentColor" p-id="3346"></path><path d="M170.666 258.412h42.67v317.586H170.666zM597.31 258.412v274.93h42.688V223.258z" fill="currentColor" p-id="3347"></path><path d="M170.666 342.472l469.332-85.216v-171.9L170.666 170.57z" fill="currentColor" p-id="3348"></path><path d="M810.65 597.528V384.22l213.336 106.656z" fill="currentColor" p-id="3349"></path><path d="M746.652 831.99m-106.654 0a106.654 106.654 0 1 0 213.308 0 106.654 106.654 0 1 0-213.308 0Z" fill="currentColor" p-id="3350"></path><path d="M426.658 533.342c0-58.904 47.766-106.684 106.67-106.684 58.92 0 106.67 47.78 106.67 106.684s-47.75 106.654-106.67 106.654c-58.904 0-106.67-47.75-106.67-106.654z" fill="currentColor" p-id="3351"></path><path d="M106.674 575.998m-106.662 0a106.662 106.662 0 1 0 213.324 0 106.662 106.662 0 1 0-213.324 0Z" fill="currentColor" p-id="3352"></path></svg>